<svg width="26" height="26" viewBox="0 0 26 26" fill="none" xmlns="http://www.w3.org/2000/svg">
<path d="M0 11.9833C0 11.5082 0 11.0805 0 10.6054C0.505787 7.74126 1.96154 5.15205 4.11401 3.28822C6.23119 1.35367 8.90709 0.205766 11.7206 0.0251336C14.5342 -0.155499 17.3257 0.641393 19.6558 2.29042C21.13 3.27502 22.383 4.57807 23.3295 6.11093C24.276 7.64379 24.8939 9.37052 25.1411 11.1737C25.3883 12.977 25.2591 14.8144 24.7622 16.561C24.2652 18.3077 23.4123 19.9226 22.2613 21.2961C20.7972 23.1734 18.846 24.575 16.6389 25.3348H16.136C16.0682 25.3423 15.9997 25.3339 15.9354 25.3103C15.8711 25.2867 15.8127 25.2484 15.7645 25.1983C15.7163 25.1482 15.6795 25.0875 15.6568 25.0207C15.6341 24.9539 15.626 24.8826 15.6332 24.8122C15.6073 24.6869 15.6073 24.5573 15.6332 24.432C15.6332 23.4342 15.6332 22.4364 15.6332 21.4386C15.6774 20.9676 15.6271 20.4921 15.4855 20.0423C15.3439 19.5925 15.114 19.1781 14.8104 18.8254L16.5931 18.4452C17.6093 18.2098 18.5279 17.6465 19.2175 16.8358C19.9071 16.0251 20.3325 15.0085 20.4329 13.9314C20.6316 12.8207 20.5529 11.6755 20.2043 10.6054C20.0218 10.0544 19.7253 9.55166 19.3358 9.13247C19.3116 9.08066 19.299 9.02378 19.299 8.96616C19.299 8.90854 19.3116 8.85169 19.3358 8.79988C19.6667 7.79912 19.6667 6.7122 19.3358 5.71145C19.2963 5.68061 19.2481 5.66392 19.1987 5.66392C19.1492 5.66392 19.1011 5.68061 19.0616 5.71145C18.458 5.74886 17.8676 5.91035 17.3245 6.18658L15.9989 6.94683H15.6789C13.7146 6.42388 11.6551 6.42388 9.69077 6.94683H9.3708C8.64522 6.46202 7.86138 6.07862 7.03952 5.8065C6.1253 5.56893 5.98816 5.80648 5.80532 6.5667C5.57674 7.37315 5.57674 8.23102 5.80532 9.03746C5.80532 9.03746 5.80532 9.03746 5.80532 9.03746C5.34494 9.61309 5.00547 10.2824 4.80866 11.0025C4.61186 11.7226 4.56208 12.4774 4.66254 13.2187C4.71921 14.0722 4.92038 14.9086 5.25679 15.6894C5.55059 16.3413 5.98306 16.9153 6.52154 17.368C7.06002 17.8207 7.69043 18.1403 8.36515 18.3027C9.0051 18.3027 9.64506 18.6353 10.3307 18.8254C9.98126 19.1891 9.74275 19.6518 9.64505 20.1558C9.63475 20.2782 9.58329 20.3929 9.49969 20.4798C9.4161 20.5667 9.30572 20.6202 9.18795 20.6309C8.78797 20.8096 8.3502 20.8773 7.91751 20.8273C7.48482 20.7773 7.07202 20.6114 6.71954 20.3458C6.39901 20.0759 6.12134 19.7552 5.89674 19.3955C5.71077 19.0474 5.4556 18.7445 5.1482 18.5069C4.84081 18.2693 4.48826 18.1025 4.11401 18.0176H3.38263C3.15408 18.0176 3.10836 18.0176 3.38263 18.3977L3.6569 18.6828C4.32298 19.0655 4.82813 19.6922 5.07394 20.4408C5.32879 21.1418 5.81013 21.7289 6.43554 22.1016C7.06095 22.4743 7.79155 22.6095 8.50227 22.4839H9.4165V24.527C9.4165 25.1922 9.05081 25.4773 8.45657 25.2873C6.46643 24.5815 4.67591 23.3733 3.2455 21.7712C1.57772 19.9694 0.47752 17.6822 0.0914244 15.2143C0.0914244 14.7867 0.0914244 14.359 0.0914244 13.9314L0 11.9833Z" fill="#A5A6AA"/>
</svg>
