<svg width="25" height="26" viewBox="0 0 25 26" fill="none" xmlns="http://www.w3.org/2000/svg">
<path d="M22.3342 0H2.86599C1.61457 0 0.600098 1.07133 0.600098 2.39289V22.9522C0.600098 24.2738 1.61457 25.3451 2.86599 25.3451H22.3342C23.5856 25.3451 24.6001 24.2738 24.6001 22.9522V2.39289C24.6001 1.07133 23.5856 0 22.3342 0Z" fill="#A5A6AA"/>
<path d="M19.3743 19.3383H16.461V14.4549C16.4835 14.2113 16.4835 13.9659 16.461 13.7224C16.4194 13.4482 16.2998 13.1939 16.1181 12.9933C15.9364 12.7926 15.7011 12.6552 15.4436 12.5992C15.1607 12.5134 14.86 12.5187 14.5799 12.6144C14.2998 12.7101 14.0531 12.8918 13.8714 13.1364C13.5762 13.5023 13.4269 13.975 13.4552 14.4549V19.3383H10.5881V10.3039H13.4552V11.5737C13.7671 11.106 14.1963 10.7394 14.6946 10.5152C15.1929 10.2909 15.7405 10.2177 16.276 10.3039C17.0532 10.3412 17.7877 10.6905 18.3292 11.2805C18.8706 11.8705 19.1783 12.6566 19.1893 13.4782C19.2122 13.8685 19.2122 14.2599 19.1893 14.6502V19.5337L19.3743 19.3383Z" fill="white"/>
<path d="M8.83081 19.3384H5.96387V10.597C5.96387 10.597 5.96386 10.304 6.2413 10.304H8.83081V19.3384Z" fill="white"/>
<path d="M5.7787 7.42283C5.75073 7.0683 5.82527 6.71316 5.99246 6.40431C6.15966 6.09546 6.41162 5.84746 6.71511 5.69305C7.0186 5.53864 7.35933 5.48507 7.69224 5.53947C8.02516 5.59387 8.33461 5.75365 8.57972 5.99771C8.82483 6.24176 8.99405 6.55862 9.06504 6.9064C9.13603 7.25417 9.10542 7.6165 8.9773 7.94552C8.84917 8.27455 8.62956 8.55476 8.34743 8.74918C8.06531 8.94359 7.73397 9.04304 7.39719 9.03439C7.18915 9.04773 6.98071 9.01594 6.78476 8.94095C6.5888 8.86595 6.40949 8.74936 6.25784 8.59836C6.1062 8.44736 5.98543 8.26517 5.90303 8.063C5.82062 7.86082 5.77832 7.64294 5.7787 7.42283V7.42283Z" fill="white"/>
</svg>
