<svg width="31" height="26" viewBox="0 0 31 26" fill="none" xmlns="http://www.w3.org/2000/svg">
<path d="M11.2227 25.3451H8.94301H7.34233C5.37833 25.0016 3.47905 24.3331 1.71572 23.3647L0.600098 22.7046C2.23282 22.8301 3.87397 22.6583 5.45062 22.1968C7.01122 21.7434 8.47591 20.9854 9.76759 19.9626C8.47098 19.9134 7.21926 19.4529 6.17821 18.6423C5.16994 17.8198 4.41163 16.7085 3.99547 15.4433C4.89064 15.6451 5.81658 15.6451 6.71175 15.4433C5.32201 15.1269 4.07965 14.3169 3.19552 13.1506C2.31138 11.9844 1.83995 10.5338 1.86123 9.04513C2.6851 9.50412 3.59664 9.76438 4.52903 9.80682C3.25497 8.86181 2.36443 7.45227 2.03236 5.85503C1.70029 4.2578 1.95067 2.58827 2.73432 1.17441C4.29341 3.16898 6.23372 4.80021 8.43065 5.96327C10.6276 7.12634 13.0326 7.79556 15.4912 7.92799C15.2729 6.89101 15.2729 5.81667 15.4912 4.7797C15.8419 3.44401 16.591 2.26058 17.6294 1.40194C18.6677 0.543297 19.9409 0.054386 21.2633 0.00652213C22.1025 -0.0331741 22.9405 0.108658 23.725 0.423183C24.5095 0.737707 25.2237 1.21817 25.8228 1.83456C25.8626 1.87482 25.9101 1.90571 25.9622 1.92517C26.0143 1.94464 26.0698 1.95222 26.1249 1.94741C26.18 1.9426 26.2335 1.9255 26.2818 1.89728C26.3301 1.86906 26.3721 1.83036 26.4049 1.78377C27.57 1.49563 28.6948 1.0519 29.7518 0.463512H30.0913C29.6407 1.90392 28.7337 3.14006 27.5205 3.96726C28.6888 3.83708 29.8326 3.52916 30.9159 3.05324V3.05324C30.177 4.18953 29.2584 5.18555 28.1996 5.99841C28.1688 6.07028 28.1529 6.14815 28.1529 6.22691C28.1529 6.30567 28.1688 6.38353 28.1996 6.4554C28.1601 9.57126 27.387 12.6288 25.9486 15.357C24.5102 18.0851 22.451 20.3996 19.9537 22.0953C17.7705 23.6633 15.2578 24.6562 12.6294 24.9896L11.2227 25.3451Z" fill="#A5A6AA"/>
</svg>
